<svg width="40" height="40" viewBox="0 0 40 40" fill="none" xmlns="http://www.w3.org/2000/svg">
<circle cx="20" cy="20" r="20" fill="#D9D9D9"/>
<path d="M24.7733 20C24.7733 22.64 22.64 24.7733 20 24.7733C17.36 24.7733 15.2267 22.64 15.2267 20C15.2267 17.36 17.36 15.2267 20 15.2267C22.64 15.2267 24.7733 17.36 24.7733 20Z" stroke="#292D32" stroke-width="1.5" stroke-linecap="round" stroke-linejoin="round"/>
<path d="M20 31.0267C24.7067 31.0267 29.0933 28.2533 32.1467 23.4533C33.3467 21.5733 33.3467 18.4133 32.1467 16.5333C29.0933 11.7333 24.7067 8.96 20 8.96C15.2933 8.96 10.9067 11.7333 7.85333 16.5333C6.65333 18.4133 6.65333 21.5733 7.85333 23.4533C10.9067 28.2533 15.2933 31.0267 20 31.0267Z" stroke="#292D32" stroke-width="1.5" stroke-linecap="round" stroke-linejoin="round"/>
</svg>
